<svg width="95" height="73" viewBox="0 0 95 73" fill="none" xmlns="http://www.w3.org/2000/svg">
<path d="M2.49698 7.83746H4.85717V16.1262H14.5508V7.83746H16.911V27H14.5508V18.2336H4.85717V27H2.49698V7.83746ZM29.7395 25.4546H29.6833C29.5148 25.5858 29.2712 25.7637 28.9528 25.9885C28.6344 26.1945 28.2691 26.4006 27.857 26.6066C27.4449 26.8127 26.986 26.9906 26.4802 27.1405C25.9932 27.2903 25.4968 27.3653 24.9911 27.3653C24.298 27.3653 23.7079 27.2716 23.2209 27.0843C22.7339 26.9157 22.3405 26.6254 22.0408 26.2133C21.7411 25.8012 21.5257 25.258 21.3946 24.5836C21.2634 23.9093 21.1979 23.0663 21.1979 22.0548V12.8669H23.4457V21.7177C23.4457 22.2796 23.4551 22.7854 23.4738 23.2349C23.4925 23.6845 23.5581 24.0685 23.6705 24.3869C23.7829 24.7054 23.9608 24.9582 24.2043 25.1456C24.4666 25.3141 24.8318 25.3984 25.3001 25.3984C25.7871 25.3984 26.2929 25.2954 26.8174 25.0894C27.3419 24.8833 27.8195 24.6492 28.2504 24.3869C28.7561 24.0872 29.2525 23.75 29.7395 23.3754V12.8669H31.9873V25.1737C32.0061 25.848 32.0529 26.4568 32.1278 27L29.9081 27.2248L29.7395 25.4546ZM46.5241 26.6628C46.0933 26.794 45.6437 26.9063 45.1754 27C44.7259 27.0937 44.2201 27.178 43.6581 27.2529C43.1149 27.3278 42.5436 27.3653 41.9442 27.3653C41.0076 27.3653 40.1366 27.2341 39.3311 26.9719C38.5257 26.7097 37.8232 26.2882 37.2238 25.7075C36.6244 25.1268 36.1467 24.3776 35.7908 23.4597C35.4537 22.5231 35.2851 21.3805 35.2851 20.0318C35.2851 18.8142 35.4537 17.7465 35.7908 16.8287C36.128 15.8921 36.5869 15.1147 37.1676 14.4966C37.767 13.8597 38.4601 13.382 39.2468 13.0636C40.0523 12.7452 40.9233 12.586 41.8599 12.586C42.7778 12.586 43.5739 12.7639 44.2482 13.1198C44.9225 13.4757 45.4751 13.9627 45.906 14.5809C46.3555 15.1803 46.6833 15.8921 46.8894 16.7163C47.1141 17.5218 47.2265 18.374 47.2265 19.2732L46.8051 20.5095H37.7296C37.7296 21.0901 37.8045 21.6708 37.9543 22.2515C38.1042 22.8322 38.3571 23.3567 38.713 23.825C39.0876 24.2933 39.5653 24.6773 40.146 24.977C40.7454 25.258 41.4853 25.3984 42.3657 25.3984C42.9276 25.3984 43.4427 25.3703 43.911 25.3141C44.3793 25.2392 44.7821 25.1643 45.1192 25.0894C45.4751 24.9957 45.8029 24.8927 46.1026 24.7803L46.5241 26.6628ZM44.8944 18.7112C44.8944 18.5801 44.8663 18.2898 44.8101 17.8402C44.754 17.3906 44.6228 16.9223 44.4168 16.4353C44.2107 15.9483 43.8923 15.5175 43.4615 15.1428C43.0306 14.7495 42.4593 14.5528 41.7475 14.5528C40.9608 14.5528 40.3145 14.7214 39.8088 15.0585C39.303 15.377 38.9003 15.761 38.6006 16.2105C38.3009 16.6601 38.0948 17.119 37.9824 17.5873C37.8701 18.0556 37.8139 18.4302 37.8139 18.7112H44.8944ZM65.3174 10.5348C64.4932 10.3662 63.6128 10.207 62.6762 10.0572C61.7584 9.90732 60.6907 9.81366 59.4731 9.77619C58.2368 9.79493 57.1691 9.98224 56.27 10.3381C55.3709 10.694 54.631 11.2092 54.0503 11.8835C53.4883 12.5391 53.0669 13.3259 52.7859 14.2437C52.5049 15.1616 52.3644 16.1731 52.3644 17.2782C52.3644 18.7019 52.5424 19.9194 52.8983 20.9309C53.2729 21.9424 53.7787 22.776 54.4156 23.4316C55.0712 24.0685 55.8298 24.5368 56.6915 24.8365C57.5531 25.1362 58.4803 25.286 59.4731 25.286C60.11 25.286 60.6813 25.2486 61.1871 25.1737C61.7116 25.0987 62.1611 25.0144 62.5358 24.9208C62.9291 24.8084 63.285 24.6866 63.6035 24.5555V19.4137H60.0913V17.3063H65.9918V25.7075C65.3361 26.1383 64.4277 26.5317 63.2663 26.8876C62.1237 27.2248 60.8593 27.384 59.4731 27.3653C58.1994 27.3653 56.9724 27.2154 55.7923 26.9157C54.631 26.616 53.5914 26.0915 52.6735 25.3422C51.7744 24.5742 51.0532 23.5346 50.51 22.2234C49.9668 20.9122 49.6952 19.2544 49.6952 17.2501C49.6952 15.6205 49.948 14.2062 50.4538 13.0074C50.9596 11.7899 51.6433 10.7877 52.5049 10.001C53.3853 9.19551 54.3968 8.5961 55.5395 8.20273C56.7008 7.79063 57.9278 7.58458 59.2202 7.58458C60.0632 7.58458 60.878 7.63141 61.6647 7.72507C62.4515 7.8 63.1726 7.89366 63.8282 8.00605C64.4839 8.09971 65.1114 8.22146 65.7108 8.37132L65.3174 10.5348ZM71.341 20.0037C71.341 21.8207 71.7438 23.1787 72.5492 24.0779C73.3734 24.9582 74.4786 25.3984 75.8648 25.3984C77.2322 25.3984 78.2999 24.9582 79.0679 24.0779C79.8359 23.1975 80.2199 21.8769 80.2199 20.1161C80.2199 18.2429 79.8078 16.8474 78.9836 15.9296C78.1781 15.0117 77.0729 14.5528 75.6681 14.5528C74.2632 14.5528 73.1861 15.0117 72.4369 15.9296C71.7063 16.8287 71.341 18.1867 71.341 20.0037ZM68.9528 19.9756C68.9528 18.552 69.1775 17.3719 69.6271 16.4353C70.0767 15.48 70.648 14.7214 71.341 14.1594C72.0341 13.5787 72.774 13.176 73.5608 12.9512C74.3662 12.7077 75.1249 12.586 75.8367 12.586C76.511 12.586 77.2415 12.6983 78.0283 12.9231C78.8337 13.1292 79.5736 13.5132 80.248 14.0751C80.9223 14.6183 81.4843 15.3582 81.9338 16.2948C82.3834 17.2127 82.6082 18.3834 82.6082 19.807C82.6082 21.2868 82.374 22.5138 81.9057 23.4878C81.4562 24.4619 80.8849 25.2392 80.1918 25.8199C79.4987 26.3819 78.7494 26.7752 77.944 27C77.1385 27.2435 76.3892 27.3653 75.6962 27.3653C74.9844 27.3653 74.2351 27.2529 73.4484 27.0281C72.6616 26.8033 71.9311 26.4193 71.2568 25.8761C70.6011 25.3141 70.0486 24.5555 69.599 23.6002C69.1682 22.6449 68.9528 21.4367 68.9528 19.9756ZM89.0513 8.65229V12.8669H93.1254V14.6933H89.0513V22.1953C89.0513 22.8135 89.0607 23.3286 89.0794 23.7407C89.1169 24.1528 89.1824 24.4806 89.2761 24.7241C89.3697 24.9676 89.5009 25.1456 89.6694 25.258C89.838 25.3516 90.0534 25.3984 90.3157 25.3984C91.0275 25.3797 91.8517 25.1175 92.7883 24.6117L93.4626 26.3257C92.8445 26.7378 92.2638 27.0094 91.7206 27.1405C91.1961 27.2903 90.6716 27.3653 90.1471 27.3653C88.9108 27.3653 88.0398 27.0187 87.534 26.3257C87.047 25.6139 86.8035 24.4431 86.8035 22.8135V14.6933H84.2185V12.8669H86.8035V8.93327L89.0513 8.65229Z" fill="#5B5B5B"/>
<path d="M4.70628 49.4358H32.0049V52.6954H4.70628V49.4358ZM54.7978 33.6271H58.2203V61.4146H54.7978V33.6271ZM73.1638 34.8087V40.9203H79.0717V43.5687H73.1638V54.4474C73.1638 55.3437 73.1774 56.0907 73.2046 56.6883C73.2589 57.2859 73.354 57.7612 73.4898 58.1143C73.6256 58.4674 73.8157 58.7255 74.0602 58.8885C74.3047 59.0243 74.617 59.0922 74.9973 59.0922C76.0295 59.065 77.2247 58.6848 78.5828 57.9514L79.5607 60.4368C78.6643 61.0343 77.8223 61.4282 77.0345 61.6183C76.274 61.8356 75.5134 61.9443 74.7529 61.9443C72.9601 61.9443 71.697 61.4418 70.9636 60.4368C70.2574 59.4046 69.9043 57.7069 69.9043 55.3437V43.5687H66.1558V40.9203H69.9043V35.2161L73.1638 34.8087ZM86.9459 31.7528L91.1018 31.3047L90.4091 53.9992H87.7608L86.9459 31.7528ZM86.5792 59.0107C86.5792 58.3588 86.8101 57.802 87.2718 57.3402C87.7336 56.8513 88.304 56.6068 88.9831 56.6068C89.6893 56.6068 90.2869 56.8513 90.7758 57.3402C91.2648 57.802 91.5092 58.3588 91.5092 59.0107C91.5092 59.6898 91.2648 60.2602 90.7758 60.722C90.2869 61.1837 89.6893 61.4146 88.9831 61.4146C88.304 61.4146 87.7336 61.1837 87.2718 60.722C86.8101 60.2602 86.5792 59.6898 86.5792 59.0107Z" fill="#383838"/>
</svg>
